# Made in Blockbench 4.9.4
mtllib materials.mtl

o cuboid
v 2.625 2.3125 1.4375000000000002
v 2.625 2.3125 -1.4375000000000002
v 2.625 0 1.4375000000000002
v 2.625 0 -1.4375000000000002
v -2.625 2.3125 1.4375000000000002
v -2.625 2.3125 -1.4375000000000002
v -2.625 0 1.4375000000000002
v -2.625 0 -1.4375000000000002
vt 0.9696969696969697 0.4242424242424242
vt 0.9696969696969697 0
vt 0.6893939393939394 0
vt 0.6893939393939394 0.4242424242424242
vt 0.6893939393939394 0
vt 0.9696969696969697 0
vt 0.9696969696969697 0.4242424242424242
vt 0.6893939393939394 0.4242424242424242
vt 0 0
vt 0.6363636363636364 0
vt 0.6363636363636364 0.4242424242424242
vt 0 0.4242424242424242
vt 0 0.4242424242424242
vt 0 0.0037543577366586645
vt 0.6363636363636364 0
vt 0.6363636363636364 0.4242424242424242
vt 0.6363636363636364 0.7196969696969697
vt 0.6363636363636364 1
vt 0 1
vt 0 0.7196969696969697
vt 0.6363636363636365 0.7121212121212122
vt 0 0.7121212121212122
vt 0 0.43181818181818177
vt 0.6363636363636365 0.43181818181818177
vn 1 0 0
vn -1 0 0
vn 0 1 0
vn 0 -1 0
vn 0 0 1
vn 0 0 -1
usemtl m_0d9f4937-d706-1117-9a3e-650b8b98a3a9
f 2/1/1 1/2/1 3/3/1 4/4/1
f 7/5/2 5/6/2 6/7/2 8/8/2
f 5/9/3 1/10/3 2/11/3 6/12/3
f 4/13/4 3/14/4 7/15/4 8/16/4
f 3/17/5 1/18/5 5/19/5 7/20/5
f 6/21/6 2/22/6 4/23/6 8/24/6